<svg width="32" height="33" viewBox="0 0 32 33" fill="none" xmlns="http://www.w3.org/2000/svg">
<g clip-path="url(#clip0_1005_7754)">
<path d="M16 0.370117C12.8355 0.370117 9.74207 1.3085 7.11088 3.0666C4.4797 4.82471 2.42894 7.32357 1.21793 10.2472C0.00693258 13.1708 -0.309921 16.3879 0.307443 19.4916C0.924806 22.5953 2.44866 25.4462 4.6863 27.6838C6.92394 29.9215 9.77487 31.4453 12.8786 32.0627C15.9823 32.68 19.1993 32.3632 22.1229 31.1522C25.0466 29.9412 27.5454 27.8904 29.3035 25.2592C31.0616 22.6281 32 19.5346 32 16.3701C31.9954 12.1281 30.3082 8.06107 27.3087 5.06148C24.3091 2.06189 20.2421 0.374705 16 0.370117ZM16 29.7035C13.3629 29.7035 10.7851 28.9215 8.5924 27.4564C6.39975 25.9913 4.69078 23.9089 3.68161 21.4726C2.67245 19.0362 2.4084 16.3553 2.92287 13.7689C3.43734 11.1825 4.70722 8.80673 6.57192 6.94203C8.43662 5.07733 10.8124 3.80745 13.3988 3.29298C15.9852 2.77851 18.6661 3.04256 21.1025 4.05172C23.5388 5.06089 25.6212 6.76986 27.0863 8.96251C28.5514 11.1552 29.3333 13.733 29.3333 16.3701C29.3295 19.9051 27.9235 23.2943 25.4238 25.7939C22.9242 28.2936 19.535 29.6996 16 29.7035Z" fill="#3D3948"/>
<path d="M16.0013 7.03662C15.6477 7.03662 15.3085 7.1771 15.0585 7.42715C14.8084 7.67719 14.668 8.01633 14.668 8.36995V19.0366C14.668 19.3902 14.8084 19.7294 15.0585 19.9794C15.3085 20.2295 15.6477 20.37 16.0013 20.37C16.3549 20.37 16.6941 20.2295 16.9441 19.9794C17.1942 19.7294 17.3346 19.3902 17.3346 19.0366V8.36995C17.3346 8.01633 17.1942 7.67719 16.9441 7.42715C16.6941 7.1771 16.3549 7.03662 16.0013 7.03662Z" fill="#3D3948"/>
<path d="M17.3346 24.37C17.3346 23.6336 16.7377 23.0366 16.0013 23.0366C15.2649 23.0366 14.668 23.6336 14.668 24.37C14.668 25.1063 15.2649 25.7033 16.0013 25.7033C16.7377 25.7033 17.3346 25.1063 17.3346 24.37Z" fill="#3D3948"/>
</g>
<defs>
<clipPath id="clip0_1005_7754">
<rect width="32" height="32" fill="white" transform="translate(0 0.370117)"/>
</clipPath>
</defs>
</svg>
