<svg width="622" height="19" viewBox="0 0 622 19" fill="none" xmlns="http://www.w3.org/2000/svg">
<path d="M306.936 15.272C306.179 15.272 305.464 15.128 304.792 14.84C304.131 14.552 303.544 14.152 303.032 13.64C302.531 13.1173 302.136 12.52 301.848 11.848C301.56 11.176 301.416 10.4507 301.416 9.672C301.416 8.88267 301.555 8.14133 301.832 7.448C302.109 6.744 302.493 6.13067 302.984 5.608C303.485 5.08533 304.061 4.67467 304.712 4.376C305.363 4.07733 306.056 3.928 306.792 3.928C307.56 3.928 308.275 4.072 308.936 4.36C309.608 4.648 310.189 5.05333 310.68 5.576C311.181 6.088 311.576 6.69067 311.864 7.384C312.152 8.07733 312.296 8.81867 312.296 9.608C312.296 10.3867 312.152 11.1173 311.864 11.8C311.587 12.472 311.203 13.0747 310.712 13.608C310.221 14.1307 309.651 14.5413 309 14.84C308.36 15.128 307.672 15.272 306.936 15.272ZM306.84 13.816C307.395 13.816 307.912 13.7093 308.392 13.496C308.883 13.2827 309.309 12.984 309.672 12.6C310.035 12.2053 310.317 11.7573 310.52 11.256C310.733 10.744 310.84 10.1893 310.84 9.592C310.84 9.016 310.733 8.47733 310.52 7.976C310.317 7.464 310.029 7.016 309.656 6.632C309.293 6.23733 308.872 5.928 308.392 5.704C307.912 5.48 307.4 5.368 306.856 5.368C306.312 5.368 305.8 5.48 305.32 5.704C304.84 5.928 304.413 6.232 304.04 6.616C303.677 7 303.389 7.448 303.176 7.96C302.973 8.472 302.872 9.02133 302.872 9.608C302.872 10.184 302.973 10.728 303.176 11.24C303.389 11.752 303.677 12.2 304.04 12.584C304.413 12.968 304.835 13.272 305.304 13.496C305.784 13.7093 306.296 13.816 306.84 13.816ZM314.431 15.16C314.228 15.16 314.073 15.128 313.967 15.064C313.871 15.0107 313.807 14.9307 313.775 14.824C313.753 14.7067 313.743 14.5733 313.743 14.424V8.12C313.743 7.96 313.759 7.82667 313.791 7.72C313.823 7.61333 313.887 7.53867 313.983 7.496C314.079 7.44267 314.233 7.416 314.447 7.416C314.639 7.416 314.783 7.44267 314.879 7.496C314.985 7.53867 315.055 7.608 315.087 7.704C315.129 7.78933 315.151 7.89067 315.151 8.008L315.087 8.488C315.161 8.34933 315.247 8.21067 315.343 8.072C315.449 7.93333 315.577 7.81067 315.727 7.704C315.887 7.58667 316.073 7.49067 316.287 7.416C316.511 7.34133 316.783 7.304 317.103 7.304C317.263 7.304 317.412 7.32 317.551 7.352C317.7 7.37333 317.839 7.41067 317.967 7.464C318.105 7.51733 318.223 7.58133 318.319 7.656C318.415 7.72 318.489 7.79467 318.543 7.88C318.607 7.95467 318.639 8.04533 318.639 8.152C318.639 8.38667 318.564 8.58933 318.415 8.76C318.265 8.92 318.111 9 317.951 9C317.812 9 317.711 8.984 317.647 8.952C317.583 8.90933 317.519 8.86667 317.455 8.824C317.401 8.78133 317.321 8.744 317.215 8.712C317.108 8.66933 316.937 8.648 316.703 8.648C316.543 8.648 316.372 8.68 316.191 8.744C316.02 8.808 315.855 8.904 315.695 9.032C315.535 9.14933 315.401 9.304 315.295 9.496C315.199 9.688 315.151 9.912 315.151 10.168V14.456C315.151 14.6053 315.135 14.7333 315.103 14.84C315.071 14.9467 315.001 15.0267 314.895 15.08C314.799 15.1333 314.644 15.16 314.431 15.16Z" fill="#AAAAAA"/>
<path d="M332 10H621" stroke="url(#paint0_linear_1180_3262)" stroke-width="1.5" stroke-linecap="round"/>
<path d="M289 10L0.999997 9.99997" stroke="url(#paint1_linear_1180_3262)" stroke-width="1.5" stroke-linecap="round"/>
<defs>
<linearGradient id="paint0_linear_1180_3262" x1="332" y1="11" x2="621" y2="11" gradientUnits="userSpaceOnUse">
<stop stop-color="#CCCCCC"/>
<stop offset="1" stop-color="#CCCCCC" stop-opacity="0"/>
</linearGradient>
<linearGradient id="paint1_linear_1180_3262" x1="289" y1="9.00001" x2="1" y2="8.99998" gradientUnits="userSpaceOnUse">
<stop stop-color="#CCCCCC"/>
<stop offset="1" stop-color="#CCCCCC" stop-opacity="0"/>
</linearGradient>
</defs>
</svg>
