<svg width="16" height="17" viewBox="0 0 16 17" fill="none" xmlns="http://www.w3.org/2000/svg">
<g clip-path="url(#clip0_685_147)">
<path d="M8 16.2871C3.58867 16.2871 0 12.6984 0 8.28711C0 3.87578 3.58867 0.287109 8 0.287109C12.4113 0.287109 16 3.87578 16 8.28711C16 12.6984 12.4113 16.2871 8 16.2871ZM8 1.62044C4.324 1.62044 1.33333 4.61111 1.33333 8.28711C1.33333 11.9631 4.324 14.9538 8 14.9538C11.676 14.9538 14.6667 11.9631 14.6667 8.28711C14.6667 4.61111 11.676 1.62044 8 1.62044ZM11.3333 8.28711C11.3333 7.91844 11.0353 7.62044 10.6667 7.62044H8.66667V4.28711C8.66667 3.91844 8.368 3.62044 8 3.62044C7.632 3.62044 7.33333 3.91844 7.33333 4.28711V8.28711C7.33333 8.65578 7.632 8.95378 8 8.95378H10.6667C11.0353 8.95378 11.3333 8.65578 11.3333 8.28711Z" fill="#787878"/>
</g>
<defs>
<clipPath id="clip0_685_147">
<rect width="16" height="16" fill="white" transform="translate(0 0.287109)"/>
</clipPath>
</defs>
</svg>
