<svg width="22" height="22" viewBox="0 0 22 22" fill="none" xmlns="http://www.w3.org/2000/svg">
<g clip-path="url(#clip0_128_638)">
<path d="M10.9999 2.56701C13.7462 2.56701 14.0719 2.5773 15.1562 2.62701C16.2774 2.67844 17.4319 2.93387 18.2488 3.75072C19.0734 4.5753 19.3211 5.71872 19.3725 6.8433C19.4222 7.92758 19.4325 8.2533 19.4325 10.9996C19.4325 13.7459 19.4222 14.0716 19.3725 15.1559C19.3219 16.271 19.0605 17.4367 18.2488 18.2484C17.4242 19.073 16.2817 19.3207 15.1562 19.3722C14.0719 19.4219 13.7462 19.4322 10.9999 19.4322C8.25366 19.4322 7.92795 19.4219 6.84366 19.3722C5.73709 19.3216 4.55595 19.0542 3.75109 18.2484C2.9308 17.4282 2.6788 16.2736 2.62738 15.1559C2.57766 14.0716 2.56738 13.7459 2.56738 10.9996C2.56738 8.2533 2.57766 7.92758 2.62738 6.8433C2.67795 5.73244 2.94195 4.55987 3.75109 3.75072C4.57395 2.92787 5.72166 2.67844 6.84366 2.62701C7.92795 2.5773 8.25366 2.56701 10.9999 2.56701ZM10.9999 0.713867C8.20652 0.713867 7.85595 0.725867 6.7588 0.775581C5.16881 0.848439 3.58995 1.29072 2.44052 2.44015C1.2868 3.59387 0.848805 5.1693 0.775948 6.75844C0.726233 7.85558 0.714233 8.20615 0.714233 10.9996C0.714233 13.793 0.726233 14.1436 0.775948 15.2407C0.848805 16.829 1.2928 18.4122 2.44052 19.559C3.59338 20.7119 5.17138 21.1507 6.7588 21.2236C7.85595 21.2733 8.20652 21.2853 10.9999 21.2853C13.7934 21.2853 14.1439 21.2733 15.2411 21.2236C16.8302 21.1507 18.4108 20.7076 19.5594 19.559C20.7139 18.4044 21.1511 16.8299 21.2239 15.2407C21.2737 14.1436 21.2857 13.793 21.2857 10.9996C21.2857 8.20615 21.2737 7.85558 21.2239 6.75844C21.1511 5.16844 20.7079 3.58872 19.5594 2.44015C18.4082 1.28901 16.8259 0.847581 15.2411 0.775581C14.1439 0.725867 13.7934 0.713867 10.9999 0.713867Z" fill="white"/>
<path d="M11 5.71777C8.08312 5.71777 5.71826 8.08263 5.71826 10.9995C5.71826 13.9163 8.08312 16.2812 11 16.2812C13.9168 16.2812 16.2817 13.9163 16.2817 10.9995C16.2817 8.08263 13.9168 5.71777 11 5.71777ZM11 14.4281C9.10655 14.4281 7.5714 12.8929 7.5714 10.9995C7.5714 9.10606 9.10655 7.57092 11 7.57092C12.8934 7.57092 14.4285 9.10606 14.4285 10.9995C14.4285 12.8929 12.8934 14.4281 11 14.4281Z" fill="white"/>
<path d="M16.4908 6.74299C17.1724 6.74299 17.725 6.19038 17.725 5.5087C17.725 4.82702 17.1724 4.27441 16.4908 4.27441C15.8091 4.27441 15.2565 4.82702 15.2565 5.5087C15.2565 6.19038 15.8091 6.74299 16.4908 6.74299Z" fill="white"/>
</g>
<defs>
<clipPath id="clip0_128_638">
<rect width="20.5714" height="20.5714" fill="white" transform="translate(0.714233 0.713867)"/>
</clipPath>
</defs>
</svg>
