<svg width="22" height="22" viewBox="0 0 22 22" fill="none" xmlns="http://www.w3.org/2000/svg">
<g clip-path="url(#clip0_128_645)">
<path d="M20.4302 19.2144H20.6248L20.2519 18.6504C20.4799 18.6504 20.6008 18.5055 20.6025 18.3281C20.6025 18.3212 20.6025 18.3135 20.6016 18.3066C20.6016 18.0649 20.4559 17.9492 20.1568 17.9492H19.6733V19.2144H19.8551V18.6632H20.0788L20.4302 19.2144ZM20.0659 18.5201H19.8551V18.0924H20.1225C20.2605 18.0924 20.4182 18.1146 20.4182 18.2955C20.4182 18.5029 20.2596 18.5201 20.0659 18.5201Z" fill="white"/>
<path d="M15.5351 17.0622H12.9577V13.0259C12.9577 12.0633 12.9405 10.8248 11.6171 10.8248C10.2748 10.8248 10.0691 11.873 10.0691 12.9565V17.0622H7.49252V8.76161H9.96709V9.89561H10.0014C10.5062 9.03333 11.4439 8.51818 12.4425 8.55504C15.0551 8.55504 15.5359 10.2736 15.5359 12.5082L15.5351 17.0622ZM4.58423 7.62676C3.75795 7.62676 3.08852 6.95733 3.08852 6.13104C3.08852 5.30476 3.75795 4.63533 4.58423 4.63533C5.41052 4.63533 6.07995 5.30476 6.07995 6.13104C6.07995 6.95733 5.41052 7.62676 4.58423 7.62676ZM5.87252 17.0622H3.29252V8.76161H5.87252V17.0622ZM16.8199 2.24219H1.99738C1.29709 2.23447 0.722805 2.7959 0.714233 3.49619V18.3796C0.722805 19.0808 1.29709 19.6422 1.99738 19.6345H16.8199C17.5219 19.643 18.0988 19.0816 18.1082 18.3796V3.49533C18.0979 2.79333 17.5211 2.2319 16.8199 2.24133" fill="white"/>
<path d="M20.0882 17.3857C19.4333 17.3917 18.907 17.9283 18.9139 18.5832C18.9199 19.238 19.4565 19.7643 20.1113 19.7575C20.7662 19.7515 21.2925 19.2149 21.2856 18.56C21.2796 17.9137 20.7567 17.3917 20.1113 17.3857H20.0882ZM20.1156 19.6212C19.5413 19.6306 19.0407 19.1737 19.0313 18.5995C19.0219 18.0252 19.4796 17.552 20.0539 17.5426C20.6282 17.5332 21.1013 17.9909 21.1107 18.5652C21.1107 18.5712 21.1107 18.5763 21.1107 18.5823C21.1227 19.1437 20.677 19.6092 20.1156 19.6212H20.089H20.1156Z" fill="white"/>
</g>
<defs>
<clipPath id="clip0_128_645">
<rect width="20.5714" height="20.5714" fill="white" transform="translate(0.714233 0.713867)"/>
</clipPath>
</defs>
</svg>
