<svg width="21" height="21" viewBox="0 0 21 21" fill="none" xmlns="http://www.w3.org/2000/svg">
<g clip-path="url(#clip0_128_629)">
<path d="M10.5182 3.08301C9.85774 3.08301 9.21211 3.27886 8.66295 3.64579C8.11379 4.01273 7.68578 4.53427 7.43303 5.14446C7.18028 5.75465 7.11415 6.42608 7.243 7.07386C7.37185 7.72163 7.68989 8.31665 8.15691 8.78367C8.62393 9.25069 9.21895 9.56874 9.86673 9.69759C10.5145 9.82644 11.1859 9.76031 11.7961 9.50756C12.4063 9.25481 12.9279 8.82679 13.2948 8.27764C13.6617 7.72848 13.8576 7.08285 13.8576 6.42238C13.8576 5.53672 13.5058 4.68734 12.8795 4.06109C12.2532 3.43483 11.4039 3.08301 10.5182 3.08301ZM10.5182 8.09207C10.188 8.09207 9.86516 7.99414 9.59058 7.81067C9.316 7.62721 9.10199 7.36644 8.97562 7.06134C8.84924 6.75625 8.81618 6.42053 8.8806 6.09664C8.94503 5.77275 9.10405 5.47524 9.33756 5.24173C9.57107 5.00822 9.86858 4.8492 10.1925 4.78478C10.5164 4.72035 10.8521 4.75342 11.1572 4.87979C11.4623 5.00617 11.723 5.22017 11.9065 5.49475C12.09 5.76933 12.1879 6.09215 12.1879 6.42238C12.1879 6.86521 12.012 7.2899 11.6989 7.60303C11.3857 7.91615 10.961 8.09207 10.5182 8.09207Z" fill="#646464"/>
<path d="M10.5181 18.1092C9.81514 18.1128 9.12153 17.9479 8.49536 17.6284C7.86919 17.3088 7.32869 16.8439 6.91912 16.2725C3.73753 11.8838 2.12378 8.58447 2.12378 6.46564C2.12378 4.23932 3.00818 2.10418 4.58243 0.529937C6.15667 -1.04431 8.29181 -1.92871 10.5181 -1.92871C12.7444 -1.92871 14.8796 -1.04431 16.4538 0.529937C18.0281 2.10418 18.9125 4.23932 18.9125 6.46564C18.9125 8.58447 17.2987 11.8838 14.1171 16.2725C13.7076 16.8439 13.1671 17.3088 12.5409 17.6284C11.9147 17.9479 11.2211 18.1128 10.5181 18.1092ZM10.5181 -0.106248C8.77532 -0.10426 7.10447 0.588948 5.87212 1.8213C4.63977 3.05365 3.94656 4.7245 3.94457 6.46731C3.94457 8.14534 5.52493 11.2485 8.39345 15.2048C8.63697 15.5402 8.95644 15.8132 9.32573 16.0014C9.69502 16.1897 10.1036 16.2878 10.5181 16.2878C10.9326 16.2878 11.3412 16.1897 11.7105 16.0014C12.0798 15.8132 12.3993 15.5402 12.6428 15.2048C15.5113 11.2485 17.0917 8.14534 17.0917 6.46731C17.0897 4.7245 16.3965 3.05365 15.1641 1.8213C13.9318 0.588948 12.2609 -0.10426 10.5181 -0.106248Z" fill="#646464"/>
</g>
<defs>
<clipPath id="clip0_128_629">
<rect width="20.0362" height="20.0362" fill="white" transform="translate(0.5 0.0771484)"/>
</clipPath>
</defs>
</svg>
