<svg width="21" height="21" viewBox="0 0 21 21" fill="none" xmlns="http://www.w3.org/2000/svg">
<g clip-path="url(#clip0_128_627)">
<path d="M16.362 0.828125H4.67421C3.56755 0.829451 2.50659 1.26966 1.72406 2.05219C0.941533 2.83472 0.501326 3.89568 0.5 5.00234L0.5 15.0205C0.501326 16.1271 0.941533 17.1881 1.72406 17.9706C2.50659 18.7531 3.56755 19.1933 4.67421 19.1947H16.362C17.4687 19.1933 18.5296 18.7531 19.3122 17.9706C20.0947 17.1881 20.5349 16.1271 20.5362 15.0205V5.00234C20.5349 3.89568 20.0947 2.83472 19.3122 2.05219C18.5296 1.26966 17.4687 0.829451 16.362 0.828125ZM4.67421 2.49781H16.362C16.8619 2.49879 17.3501 2.64935 17.7637 2.9301C18.1773 3.21084 18.4974 3.60894 18.6829 4.07316L12.2897 10.4672C11.8192 10.9358 11.1822 11.1989 10.5181 11.1989C9.85407 11.1989 9.21707 10.9358 8.74658 10.4672L2.35335 4.07316C2.53881 3.60894 2.85894 3.21084 3.27255 2.9301C3.68616 2.64935 4.17432 2.49879 4.67421 2.49781ZM16.362 17.525H4.67421C4.00997 17.525 3.37294 17.2611 2.90325 16.7914C2.43356 16.3217 2.16969 15.6847 2.16969 15.0205V6.2546L7.56611 11.6477C8.34972 12.4293 9.41133 12.8683 10.5181 12.8683C11.6249 12.8683 12.6865 12.4293 13.4701 11.6477L18.8665 6.2546V15.0205C18.8665 15.6847 18.6027 16.3217 18.133 16.7914C17.6633 17.2611 17.0263 17.525 16.362 17.525Z" fill="#646464"/>
</g>
<defs>
<clipPath id="clip0_128_627">
<rect width="20.0362" height="20.0362" fill="white" transform="translate(0.5 -0.00683594)"/>
</clipPath>
</defs>
</svg>
