<?xml version="1.0" encoding="UTF-8" standalone="no"?>
<svg width="24" height="24" id="Line" xmlns="http://www.w3.org/2000/svg" viewBox="0 0 64 64">
  <title>1</title>
  <path
    d="M8.498,10.78369a4.49854,4.49854,0,1,0,4.499,4.49854A4.50326,4.50326,0,0,0,8.498,10.78369Zm0,6.99707a2.49854,2.49854,0,1,1,2.499-2.49853A2.50127,2.50127,0,0,1,8.498,17.78076Z"/>
  <path d="M20.52246,16.28223H59a1,1,0,1,0,0-2H20.52246a1,1,0,0,0,0,2Z"/>
  <path
    d="M8.498,27.50146A4.49854,4.49854,0,1,0,12.99707,32,4.50326,4.50326,0,0,0,8.498,27.50146Zm0,6.99708A2.49854,2.49854,0,1,1,10.99707,32,2.50128,2.50128,0,0,1,8.498,34.49854Z"/>
  <path d="M59,31H20.52246a1,1,0,1,0,0,2H59a1,1,0,0,0,0-2Z"/>
  <path
    d="M8.498,44.21924a4.49854,4.49854,0,1,0,4.499,4.49853A4.50325,4.50325,0,0,0,8.498,44.21924Zm0,6.99707a2.49854,2.49854,0,1,1,2.499-2.49854A2.50128,2.50128,0,0,1,8.498,51.21631Z"/>
  <path d="M59,47.71777H20.52246a1,1,0,1,0,0,2H59a1,1,0,0,0,0-2Z"/>
</svg>
