<svg width="21" height="21" viewBox="0 0 21 21" fill="none" xmlns="http://www.w3.org/2000/svg">
<g clip-path="url(#clip0_128_622)">
<path d="M11.3529 1.74926C11.3529 1.52785 11.4409 1.3155 11.5974 1.15894C11.754 1.00238 11.9664 0.914419 12.1878 0.914419C14.4012 0.91685 16.5232 1.79719 18.0883 3.3623C19.6534 4.92741 20.5338 7.04945 20.5362 9.26285C20.5362 9.48426 20.4482 9.69661 20.2917 9.85317C20.1351 10.0097 19.9228 10.0977 19.7014 10.0977C19.4799 10.0977 19.2676 10.0097 19.111 9.85317C18.9545 9.69661 18.8665 9.48426 18.8665 9.26285C18.8645 7.49215 18.1602 5.79454 16.9082 4.54246C15.6561 3.29038 13.9585 2.58609 12.1878 2.58411C11.9664 2.58411 11.754 2.49615 11.5974 2.33959C11.4409 2.18302 11.3529 1.97068 11.3529 1.74926ZM12.1878 5.92348C13.0734 5.92348 13.9228 6.2753 14.5491 6.90156C15.1753 7.52781 15.5271 8.37719 15.5271 9.26285C15.5271 9.48426 15.6151 9.69661 15.7717 9.85317C15.9282 10.0097 16.1406 10.0977 16.362 10.0977C16.5834 10.0977 16.7957 10.0097 16.9523 9.85317C17.1089 9.69661 17.1968 9.48426 17.1968 9.26285C17.1955 7.93477 16.6673 6.66147 15.7282 5.72238C14.7892 4.78328 13.5159 4.25512 12.1878 4.25379C11.9664 4.25379 11.754 4.34175 11.5974 4.49831C11.4409 4.65487 11.3529 4.86722 11.3529 5.08863C11.3529 5.31005 11.4409 5.52239 11.5974 5.67896C11.754 5.83552 11.9664 5.92348 12.1878 5.92348ZM19.779 14.8889C20.2628 15.374 20.5345 16.0312 20.5345 16.7163C20.5345 17.4015 20.2628 18.0587 19.779 18.5438L19.0193 19.4195C12.1819 25.9656 -4.45649 9.33131 1.98849 2.47224L2.94856 1.63739C3.43425 1.16711 4.08556 0.906947 4.7616 0.913196C5.43763 0.919445 6.08402 1.1916 6.56093 1.67079C6.58681 1.69667 8.13377 3.70613 8.13377 3.70613C8.5928 4.18836 8.84832 4.82894 8.84723 5.4947C8.84614 6.16047 8.58853 6.80021 8.12793 7.28093L7.16118 8.49646C7.69619 9.79641 8.48279 10.9778 9.47579 11.9728C10.4688 12.9678 11.6486 13.7568 12.9475 14.2944L14.1705 13.3219C14.6513 12.8616 15.2909 12.6043 15.9565 12.6034C16.6221 12.6024 17.2624 12.858 17.7445 13.3168C17.7445 13.3168 19.7531 14.863 19.779 14.8889ZM18.6303 16.1027C18.6303 16.1027 16.6325 14.5658 16.6066 14.5399C16.4346 14.3694 16.2022 14.2737 15.96 14.2737C15.7178 14.2737 15.4854 14.3694 15.3134 14.5399C15.2909 14.5633 13.607 15.9049 13.607 15.9049C13.4935 15.9952 13.3585 16.0544 13.2152 16.0766C13.0719 16.0989 12.9252 16.0834 12.7897 16.0318C11.107 15.4053 9.57867 14.4245 8.30812 13.1558C7.03757 11.8871 6.05452 10.3602 5.42554 8.67846C5.36977 8.54109 5.35159 8.39135 5.37287 8.24462C5.39414 8.0979 5.45411 7.95949 5.5466 7.84362C5.5466 7.84362 6.88819 6.1589 6.91073 6.1372C7.08126 5.96521 7.17694 5.73281 7.17694 5.49061C7.17694 5.24841 7.08126 5.01601 6.91073 4.84403C6.88485 4.81898 5.3479 2.81953 5.3479 2.81953C5.17334 2.663 4.94551 2.57918 4.71112 2.58523C4.47674 2.59128 4.25354 2.68676 4.08729 2.85209L3.12722 3.68693C-1.58296 9.35051 12.8356 22.9693 17.7988 18.2792L18.5593 17.4026C18.7375 17.2375 18.8446 17.0096 18.8578 16.767C18.871 16.5244 18.7894 16.2862 18.6303 16.1027Z" fill="#646464"/>
</g>
<defs>
<clipPath id="clip0_128_622">
<rect width="20.0362" height="20.0362" fill="white" transform="translate(0.5 0.914062)"/>
</clipPath>
</defs>
</svg>
