<svg width="20" height="21" viewBox="0 0 20 21" fill="none" xmlns="http://www.w3.org/2000/svg">
<g clip-path="url(#clip0_685_120)">
<path d="M0.144919 3.37717C-0.178414 2.49217 0.0649194 1.51217 0.765753 0.881337C1.46492 0.253004 2.46075 0.111337 3.30575 0.52217L18.3808 7.55884C19.1891 7.93717 19.7674 8.628 20.0016 9.453H3.37492L0.192419 3.483C0.174919 3.44884 0.159086 3.413 0.144919 3.37717ZM3.38659 11.1205L0.259086 17.0997C0.241586 17.133 0.226586 17.1663 0.214086 17.2013C-0.108414 18.0872 0.137419 19.0655 0.838253 19.6955C1.27242 20.0847 1.82075 20.2855 2.37242 20.2855C2.71325 20.2855 3.05492 20.2088 3.37325 20.053L18.3824 13.0213C19.1933 12.6413 19.7708 11.948 20.0033 11.1213H3.38659V11.1205Z" fill="white"/>
</g>
<defs>
<clipPath id="clip0_685_120">
<rect width="20" height="20" fill="white" transform="translate(0 0.287109)"/>
</clipPath>
</defs>
</svg>
