<svg width="22" height="22" viewBox="0 0 22 22" fill="none" xmlns="http://www.w3.org/2000/svg">
<g clip-path="url(#clip0_128_658)">
<path fill-rule="evenodd" clip-rule="evenodd" d="M10.9999 0.713867C5.31966 0.713867 0.714233 5.3193 0.714233 10.9996C0.714233 16.6799 5.31966 21.2853 10.9999 21.2853C16.6802 21.2853 21.2857 16.6799 21.2857 10.9996C21.2857 5.3193 16.6802 0.713867 10.9999 0.713867ZM15.7674 7.70901C15.6131 9.33501 14.9428 13.2822 14.6025 15.1036C14.4585 15.875 14.1739 16.133 13.8997 16.1579C13.3022 16.2127 12.8488 15.7627 12.2702 15.3839C11.3651 14.7907 10.8534 14.4213 9.9748 13.8419C8.95909 13.1724 9.61738 12.8047 10.1959 12.2039C10.3477 12.0462 12.9791 9.65215 13.0305 9.4353C13.0365 9.40787 13.0434 9.30672 12.9825 9.25358C12.9217 9.20044 12.8334 9.21844 12.7699 9.23301C12.6791 9.25358 11.2331 10.2093 8.43109 12.1002C8.02052 12.3822 7.64852 12.5193 7.31509 12.5124C6.94823 12.5047 6.24195 12.305 5.71652 12.1336C5.0728 11.9244 4.56023 11.813 4.6048 11.4582C4.62795 11.273 4.88252 11.0836 5.36938 10.8899C8.36766 9.58358 10.3674 8.72215 11.3677 8.30558C14.2245 7.11758 14.8177 6.91101 15.2051 6.90415C15.6902 6.8973 15.8068 7.29758 15.7674 7.70901Z" fill="white"/>
</g>
<defs>
<clipPath id="clip0_128_658">
<rect width="20.5714" height="20.5714" fill="white" transform="translate(0.714233 0.713867)"/>
</clipPath>
</defs>
</svg>
