<svg width="22" height="22" viewBox="0 0 22 22" fill="none" xmlns="http://www.w3.org/2000/svg">
<g clip-path="url(#clip0_128_652)">
<path fill-rule="evenodd" clip-rule="evenodd" d="M18.2539 3.70358C16.3288 1.77672 13.7693 0.714724 11.0428 0.713867C5.4242 0.713867 0.851347 5.28587 0.848776 10.907C0.847919 12.7036 1.31763 14.4573 2.20992 16.0036L0.763062 21.2853L6.16649 19.8676C7.65535 20.6802 9.33192 21.1079 11.0376 21.1087H11.0419C16.6596 21.1087 21.2333 16.5359 21.2359 10.9147C21.2376 8.19158 20.1782 5.62958 18.2539 3.70358ZM11.0428 19.3867H11.0393C9.51877 19.3867 8.0282 18.9779 6.72706 18.2056L6.41763 18.0222L3.21106 18.863L4.06735 15.7362L3.86592 15.4156C3.01735 14.0664 2.56992 12.5073 2.57078 10.907C2.57249 6.23558 6.37392 2.43501 11.0471 2.43501C13.3099 2.43501 15.4373 3.31787 17.0368 4.91901C18.6362 6.52101 19.5165 8.6493 19.5156 10.913C19.5131 15.5862 15.7125 19.3867 11.0428 19.3867ZM15.6902 13.0413C15.4356 12.9136 14.1833 12.2973 13.9493 12.2124C13.7162 12.1276 13.5465 12.0847 13.3759 12.3393C13.2053 12.5939 12.7185 13.1682 12.5693 13.3387C12.4211 13.5084 12.2719 13.5299 12.0173 13.4022C11.7628 13.2744 10.9416 13.0062 9.96877 12.1379C9.21192 11.4624 8.7002 10.6284 8.55192 10.373C8.40363 10.1176 8.53649 9.98044 8.66335 9.85358C8.7782 9.73958 8.91792 9.55615 9.04563 9.40701C9.1742 9.25958 9.2162 9.1533 9.30192 8.98273C9.38678 8.81301 9.34478 8.66387 9.28049 8.53615C9.2162 8.4093 8.70706 7.1553 8.49535 6.6453C8.28878 6.14815 8.07878 6.21587 7.92192 6.20815C7.77363 6.20044 7.60392 6.19958 7.43335 6.19958C7.26363 6.19958 6.98763 6.26301 6.75449 6.51844C6.52135 6.77387 5.86306 7.39015 5.86306 8.6433C5.86306 9.8973 6.77592 11.1084 6.90278 11.2782C7.02963 11.4479 8.69849 14.021 11.2536 15.1242C11.8613 15.3864 12.3362 15.5433 12.7056 15.6607C13.3159 15.8544 13.8713 15.827 14.3102 15.7619C14.7996 15.689 15.8171 15.1456 16.0296 14.5507C16.2422 13.9559 16.2422 13.445 16.1779 13.3396C16.1145 13.2324 15.9448 13.169 15.6902 13.0413Z" fill="white"/>
</g>
<defs>
<clipPath id="clip0_128_652">
<rect width="20.5714" height="20.5714" fill="white" transform="translate(0.714233 0.713867)"/>
</clipPath>
</defs>
</svg>
